<svg width="22" height="21" viewBox="0 0 22 21" fill="none" xmlns="http://www.w3.org/2000/svg">
<path d="M4.125 5.16666H18.4896C18.7806 5.16667 19.0685 5.22767 19.3345 5.34572C19.6006 5.46378 19.8389 5.63628 20.0342 5.85209C20.2295 6.0679 20.3774 6.32224 20.4684 6.59872C20.5594 6.87519 20.5915 7.16766 20.5625 7.45728L19.9375 13.7073C19.8861 14.2214 19.6455 14.698 19.2625 15.0447C18.8794 15.3913 18.3812 15.5833 17.8646 15.5833H7.91667C7.43487 15.5835 6.96789 15.4167 6.59526 15.1113C6.22262 14.8059 5.96735 14.3808 5.87292 13.9083L4.125 5.16666Z" stroke="#5B5959" stroke-width="2" stroke-linejoin="round"/>
<path d="M4.125 5.16667L3.28125 1.78854C3.22482 1.56328 3.09474 1.36334 2.91167 1.22047C2.72861 1.07761 2.50305 1.00001 2.27083 1H1" stroke="#5B5959" stroke-width="2" stroke-linecap="round" stroke-linejoin="round"/>
<path d="M7.25 19.75H9.33333" stroke="#5B5959" stroke-width="2" stroke-linecap="round" stroke-linejoin="round"/>
<path d="M15.5834 19.75H17.6667" stroke="#5B5959" stroke-width="2" stroke-linecap="round" stroke-linejoin="round"/>
</svg>
